<?xml version="1.0" encoding="UTF-8" standalone="no"?>
<svg
   version="1.2"
   width="594"
   height="594"
   viewBox="0 0 15716.25 15716.25"
   preserveAspectRatio="xMidYMid"
   fill-rule="evenodd"
   stroke-width="28.222"
   stroke-linejoin="round"
   xml:space="preserve"
   id="svg171"
   sodipodi:docname="sprite_korea_univ.svg"
   inkscape:version="1.2.2 (b0a8486541, 2022-12-01)"
   xmlns:inkscape="http://www.inkscape.org/namespaces/inkscape"
   xmlns:sodipodi="http://sodipodi.sourceforge.net/DTD/sodipodi-0.dtd"
   xmlns="http://www.w3.org/2000/svg"
   xmlns:svg="http://www.w3.org/2000/svg"
   xmlns:ooo="http://xml.openoffice.org/svg/export"><sodipodi:namedview
   id="namedview173"
   pagecolor="#ffffff"
   bordercolor="#000000"
   borderopacity="0.25"
   inkscape:showpageshadow="2"
   inkscape:pageopacity="0.0"
   inkscape:pagecheckerboard="true"
   inkscape:deskcolor="#d1d1d1"
   inkscape:document-units="mm"
   showgrid="false"
   inkscape:zoom="1.5393939"
   inkscape:cx="315.38386"
   inkscape:cy="285.50197"
   inkscape:window-width="1920"
   inkscape:window-height="1008"
   inkscape:window-x="0"
   inkscape:window-y="1080"
   inkscape:window-maximized="1"
   inkscape:current-layer="g167"
   inkscape:lockguides="false" />
 <defs
   class="ClipPathGroup"
   id="defs8">
  <clipPath
   id="presentation_clip_path"
   clipPathUnits="userSpaceOnUse">
   <rect
   x="0"
   y="0"
   width="21000"
   height="29700"
   id="rect2" />
  </clipPath>
  <clipPath
   id="presentation_clip_path_shrink"
   clipPathUnits="userSpaceOnUse">
   <rect
   x="21"
   y="29"
   width="20958"
   height="29641"
   id="rect5" />
  </clipPath>
 </defs>
 <defs
   class="TextShapeIndex"
   id="defs12">
  <g
   ooo:slide="id1"
   ooo:id-list="id3 id4 id5 id6 id7 id8 id9 id10 id11 id12 id13 id14 id15 id16 id17 id18"
   id="g10" />
 </defs>
 <defs
   class="EmbeddedBulletChars"
   id="defs44">
  <g
   id="bullet-char-template-57356"
   transform="matrix(4.8828125e-4,0,0,-4.8828125e-4,0,0)">
   <path
   d="M 580,1141 1163,571 580,0 -4,571 Z"
   id="path14" />
  </g>
  <g
   id="bullet-char-template-57354"
   transform="matrix(4.8828125e-4,0,0,-4.8828125e-4,0,0)">
   <path
   d="M 8,1128 H 1137 V 0 H 8 Z"
   id="path17" />
  </g>
  <g
   id="bullet-char-template-10146"
   transform="matrix(4.8828125e-4,0,0,-4.8828125e-4,0,0)">
   <path
   d="M 174,0 602,739 174,1481 1456,739 Z M 1358,739 309,1346 659,739 Z"
   id="path20" />
  </g>
  <g
   id="bullet-char-template-10132"
   transform="matrix(4.8828125e-4,0,0,-4.8828125e-4,0,0)">
   <path
   d="M 2015,739 1276,0 H 717 l 543,543 H 174 v 393 h 1086 l -543,545 h 557 z"
   id="path23" />
  </g>
  <g
   id="bullet-char-template-10007"
   transform="matrix(4.8828125e-4,0,0,-4.8828125e-4,0,0)">
   <path
   d="m 0,-2 c -7,16 -16,29 -25,39 l 381,530 c -94,256 -141,385 -141,387 0,25 13,38 40,38 9,0 21,-2 34,-5 21,4 42,12 65,25 l 27,-13 111,-251 280,301 64,-25 24,25 c 21,-10 41,-24 62,-43 C 886,937 835,863 770,784 769,783 710,716 594,584 L 774,223 c 0,-27 -21,-55 -63,-84 l 16,-20 C 717,90 699,76 672,76 641,76 570,178 457,381 L 164,-76 c -22,-34 -53,-51 -92,-51 -42,0 -63,17 -64,51 -7,9 -10,24 -10,44 0,9 1,19 2,30 z"
   id="path26" />
  </g>
  <g
   id="bullet-char-template-10004"
   transform="matrix(4.8828125e-4,0,0,-4.8828125e-4,0,0)">
   <path
   d="M 285,-33 C 182,-33 111,30 74,156 52,228 41,333 41,471 c 0,78 14,145 41,201 34,71 87,106 158,106 53,0 88,-31 106,-94 l 23,-176 c 8,-64 28,-97 59,-98 l 735,706 c 11,11 33,17 66,17 42,0 63,-15 63,-46 V 965 c 0,-36 -10,-64 -30,-84 L 442,47 C 390,-6 338,-33 285,-33 Z"
   id="path29" />
  </g>
  <g
   id="bullet-char-template-9679"
   transform="matrix(4.8828125e-4,0,0,-4.8828125e-4,0,0)">
   <path
   d="M 813,0 C 632,0 489,54 383,161 276,268 223,411 223,592 c 0,181 53,324 160,431 106,107 249,161 430,161 179,0 323,-54 432,-161 108,-107 162,-251 162,-431 0,-180 -54,-324 -162,-431 C 1136,54 992,0 813,0 Z"
   id="path32" />
  </g>
  <g
   id="bullet-char-template-8226"
   transform="matrix(4.8828125e-4,0,0,-4.8828125e-4,0,0)">
   <path
   d="m 346,457 c -73,0 -137,26 -191,78 -54,51 -81,114 -81,188 0,73 27,136 81,188 54,52 118,78 191,78 73,0 134,-26 185,-79 51,-51 77,-114 77,-187 0,-75 -25,-137 -76,-188 -50,-52 -112,-78 -186,-78 z"
   id="path35" />
  </g>
  <g
   id="bullet-char-template-8211"
   transform="matrix(4.8828125e-4,0,0,-4.8828125e-4,0,0)">
   <path
   d="M -4,459 H 1135 V 606 H -4 Z"
   id="path38" />
  </g>
  <g
   id="bullet-char-template-61548"
   transform="matrix(4.8828125e-4,0,0,-4.8828125e-4,0,0)">
   <path
   d="m 173,740 c 0,163 58,303 173,419 116,115 255,173 419,173 163,0 302,-58 418,-173 116,-116 174,-256 174,-419 0,-163 -58,-303 -174,-418 C 1067,206 928,148 765,148 601,148 462,206 346,322 231,437 173,577 173,740 Z"
   id="path41" />
  </g>
 </defs>
 <g
   id="g49">
  <g
   id="id2"
   class="Master_Slide">
   <g
   id="bg-id2"
   class="Background" />
   <g
   id="bo-id2"
   class="BackgroundObjects" />
  </g>
 </g>
 <g
   class="SlideGroup"
   id="g169"
   transform="matrix(0.78182699,0,0,0.78182699,-66.082457,-5948.4519)">
  <g
   id="g167">
   <g
   id="container-id1">
    <g
   id="id1"
   class="Slide"
   clip-path="url(#presentation_clip_path)">
     <g
   class="Page"
   id="g163">
      <g
   class="com.sun.star.drawing.ClosedBezierShape"
   id="g56">
       <g
   id="id3">
        <rect
   class="BoundingBox"
   stroke="none"
   fill="none"
   x="9970"
   y="15901"
   width="364"
   height="1059"
   id="rect51" />
        <path
   fill="#231f20"
   stroke="none"
   d="m 10069,15922 c 32,-39 74,-12 109,0 33,9 34,74 53,107 10,23 76,87 81,108 53,240 0,553 -108,734 -30,55 -79,85 -114,87 -45,3 -60,-63 -76,-87 -68,-97 -16,-325 0,-432 19,-139 -90,-359 -21,-460 0,0 74,-57 76,-57 z"
   id="path53"
   style="fill:#ffffff" />
       </g>
      </g>
      <g
   class="com.sun.star.drawing.ClosedBezierShape"
   id="g63">
       <g
   id="id4">
        <rect
   class="BoundingBox"
   stroke="none"
   fill="none"
   x="6773"
   y="15833"
   width="1789"
   height="444"
   id="rect58" />
        <path
   fill="#231f20"
   stroke="none"
   d="m 6821,16176 c 58,-18 142,11 177,0 l 78,-32 c 90,-59 179,-41 271,-33 45,6 181,65 226,66 72,8 413,45 778,98 -4,-2 193,-27 144,-81 30,35 -6,-29 -80,-55 l -26,-28 c 4,-3 -62,-55 55,-95 -45,14 77,-17 100,-43 47,-50 -22,-105 -22,-105 -171,-58 -364,52 -623,26 -127,-10 -308,-84 -486,-54 -196,35 -482,144 -618,252 0,0 -65,113 26,84 z"
   id="path60"
   style="fill:#ffffff" />
       </g>
      </g>
      <g
   class="com.sun.star.drawing.ClosedBezierShape"
   id="g70">
       <g
   id="id5">
        <rect
   class="BoundingBox"
   stroke="none"
   fill="none"
   x="8036"
   y="14768"
   width="1149"
   height="995"
   id="rect65" />
        <path
   fill="#231f20"
   stroke="none"
   d="m 8996,14768 c 175,-11 183,172 187,152 -20,131 -339,142 -415,244 -224,290 -129,568 -658,597 0,0 -105,-24 -65,-68 33,-34 161,-68 208,-97 68,-40 63,-149 108,-216 9,-18 68,-39 83,-53 148,-200 166,-402 426,-521 11,-7 106,-34 126,-38 z"
   id="path67"
   style="fill:#ffffff" />
       </g>
      </g>
      <g
   class="com.sun.star.drawing.ClosedBezierShape"
   id="g77">
       <g
   id="id6">
        <rect
   class="BoundingBox"
   stroke="none"
   fill="none"
   x="10301"
   y="13973"
   width="846"
   height="4529"
   id="rect72" />
        <path
   fill="#231f20"
   stroke="none"
   d="m 10682,13987 c 60,-34 119,0 158,35 24,17 216,479 225,525 25,168 43,555 -2,679 -65,173 -225,306 -191,615 20,180 100,321 175,478 9,26 88,180 93,212 29,165 -61,379 -75,512 -41,334 93,636 40,954 -23,137 -67,206 -142,291 l -60,50 c -16,34 -47,45 -76,68 l -37,37 c -57,13 -63,47 -85,50 -143,31 -172,-52 -163,-33 -146,-407 98,-884 -27,-1277 -29,-90 -135,-180 -149,-277 -50,-353 281,-538 276,-776 0,-169 -223,-389 -273,-556 -63,-196 -105,-570 -19,-814 19,-59 97,-158 117,-237 41,-152 105,-278 126,-379 8,-31 27,-76 43,-105 6,-10 36,-47 46,-52 z"
   id="path74"
   style="fill:#ffffff" />
       </g>
      </g>
      <g
   class="com.sun.star.drawing.ClosedBezierShape"
   id="g84">
       <g
   id="id7">
        <rect
   class="BoundingBox"
   stroke="none"
   fill="none"
   x="13493"
   y="13139"
   width="1677"
   height="986"
   id="rect79" />
        <path
   fill="#231f20"
   stroke="none"
   d="m 14891,13145 c 238,-28 345,67 234,270 l -47,45 c -19,7 -83,89 -96,101 -115,85 -224,137 -312,245 -29,36 -54,128 -92,160 -60,42 -287,143 -345,153 -289,46 -682,-241 -725,-408 -37,-143 0,-281 62,-314 97,-49 354,-24 442,-32 223,-17 363,-5 533,-64 104,-33 222,-141 346,-156 z"
   id="path81"
   style="fill:#ffffff" />
       </g>
      </g>
      <g
   class="com.sun.star.drawing.ClosedBezierShape"
   id="g91">
       <g
   id="id8">
        <rect
   class="BoundingBox"
   stroke="none"
   fill="none"
   x="13588"
   y="12642"
   width="1041"
   height="446"
   id="rect86" />
        <path
   fill="#231f20"
   stroke="none"
   d="m 13661,13051 c 0,0 134,57 257,27 85,-22 245,-95 324,-109 49,-12 117,13 164,0 132,-40 375,-297 84,-326 -106,-10 -420,109 -519,137 -98,24 -159,41 -240,84 -22,12 -134,104 -121,89 0,0 -75,61 51,98 z"
   id="path88"
   style="fill:#ffffff" />
       </g>
      </g>
      <g
   class="com.sun.star.drawing.ClosedBezierShape"
   id="g98">
       <g
   id="id9">
        <rect
   class="BoundingBox"
   stroke="none"
   fill="none"
   x="10414"
   y="12507"
   width="1312"
   height="1168"
   id="rect93" />
        <path
   fill="#231f20"
   stroke="none"
   d="m 11587,13537 c -85,-11 -85,-155 -298,-108 -149,31 -191,250 -408,244 l -107,-53 c -95,-22 -162,11 -245,-29 -382,-179 296,-1096 515,-1084 11,0 125,41 139,54 67,59 67,315 132,407 49,65 125,60 192,108 69,52 199,233 215,328 0,0 35,156 -135,133 z"
   id="path95"
   style="fill:#ffffff" />
       </g>
      </g>
      <g
   class="com.sun.star.drawing.ClosedBezierShape"
   id="g105">
       <g
   id="id10">
        <rect
   class="BoundingBox"
   stroke="none"
   fill="none"
   x="15112"
   y="20934"
   width="5"
   height="7"
   id="rect100" />
        <path
   fill="#231f20"
   stroke="none"
   d="m 15112,20940 c 5,-7 5,-8 0,0 z"
   id="path102" />
       </g>
      </g>
      <g
   class="com.sun.star.drawing.ClosedBezierShape"
   id="g112">
       <g
   id="id11">
        <rect
   class="BoundingBox"
   stroke="none"
   fill="none"
   x="18153"
   y="12880"
   width="1"
   height="5"
   id="rect107" />
        <path
   fill="#231f20"
   stroke="none"
   d="m 18153,12883 c 0,-4 0,-5 0,0 z"
   id="path109" />
       </g>
      </g>
      <g
   class="com.sun.star.drawing.ClosedBezierShape"
   id="g119">
       <g
   id="id12">
        <rect
   class="BoundingBox"
   stroke="none"
   fill="none"
   x="15111"
   y="20938"
   width="2"
   height="1"
   id="rect114" />
        <path
   fill="#231f20"
   stroke="none"
   d="m 15112,20938 h -1 c 1,0 1,0 1,0 z"
   id="path116" />
       </g>
      </g>
      <g
   class="com.sun.star.drawing.ClosedBezierShape"
   id="g126">
       <g
   id="id13">
        <rect
   class="BoundingBox"
   stroke="none"
   fill="none"
   x="18153"
   y="12883"
   width="4"
   height="8"
   id="rect121" />
        <path
   fill="#231f20"
   stroke="none"
   d="m 18153,12883 c 0,1 0,4 0,6 0,1 3,1 3,1 -3,-3 -3,-6 -3,-7 z"
   id="path123" />
       </g>
      </g>
      <g
   class="com.sun.star.drawing.ClosedBezierShape"
   id="g133">
       <g
   id="id14">
        <rect
   class="BoundingBox"
   stroke="none"
   fill="none"
   x="14731"
   y="12611"
   width="10"
   height="18"
   id="rect128" />
        <path
   fill="#231f20"
   stroke="none"
   d="m 14732,12626 c 3,-6 5,-11 7,-15 -8,16 -10,18 -7,15 z"
   id="path130" />
       </g>
      </g>
      <g
   class="com.sun.star.drawing.ClosedBezierShape"
   id="g140">
       <g
   id="id15">
        <rect
   class="BoundingBox"
   stroke="none"
   fill="none"
   x="13078"
   y="17250"
   width="9"
   height="6"
   id="rect135" />
        <path
   fill="#231f20"
   stroke="none"
   d="m 13085,17253 c -1,0 -5,0 -7,-3 7,6 8,6 7,3 z"
   id="path137" />
       </g>
      </g>
      <g
   class="com.sun.star.drawing.ClosedBezierShape"
   id="g147">
       <g
   id="id16">
        <rect
   class="BoundingBox"
   stroke="none"
   fill="none"
   x="6987"
   y="13597"
   width="3058"
   height="4015"
   id="rect142" />
        <path
   fill="#231f20"
   stroke="none"
   d="m 8227,15036 c -152,34 -166,-289 -531,-163 -19,6 -122,100 -131,116 -43,96 -20,343 -68,366 0,0 -141,36 -114,-144 44,-285 99,-338 243,-459 20,-15 74,-55 102,-62 173,-39 490,27 547,115 49,72 -55,233 -48,231 z m 1716,-1432 c -148,83 -469,210 -537,353 -38,75 -38,141 -68,232 -4,9 -45,25 -57,53 -157,0 -295,-10 -432,27 -107,29 -260,143 -378,163 -242,42 -426,-66 -651,-27 -101,18 -166,122 -249,164 -71,34 -99,34 -155,84 l -49,57 c -8,22 -33,77 -48,103 -50,73 -70,149 -81,228 -12,77 -57,262 -97,339 -19,37 -121,119 -137,153 -7,23 -29,47 0,81 -34,-38 -27,38 168,48 215,5 683,-138 683,-138 l 224,-121 c 45,-34 218,-166 256,-212 164,-202 601,-941 942,-748 l 61,44 c 81,137 -21,526 -82,616 l -77,91 c -62,20 -104,178 -112,250 -15,118 19,223 27,288 18,140 33,317 -53,491 -19,33 -68,93 -55,187 15,107 166,184 188,273 14,44 52,51 0,135 -28,46 -152,123 -188,163 -50,49 -8,128 26,159 94,84 171,95 244,192 103,134 97,250 326,272 179,16 433,26 326,-218 l -55,-91 c -63,-160 -175,-302 -190,-477 -21,-222 158,-334 83,-514 -61,-138 -331,-123 -353,-301 -12,-100 89,-312 109,-407 21,-130 -14,-213 27,-324 28,-81 146,-170 160,-270 25,-179 -114,-292 -53,-488 30,-100 188,-89 245,-164 76,-100 35,-239 80,-381 5,-16 44,-100 52,-115 -5,-6 31,-182 31,-182 -23,-109 -92,-64 -101,-68 z"
   id="path144"
   style="fill:#ffffff" />
       </g>
      </g>
      <g
   class="com.sun.star.drawing.ClosedBezierShape"
   id="g154">
       <g
   id="id17">
        <rect
   class="BoundingBox"
   stroke="none"
   fill="none"
   x="2108"
   y="10677"
   width="16055"
   height="12849"
   id="rect149" />
        <path
   fill="#231f20"
   stroke="none"
   d="m 4107,18794 c 144,-87 282,-181 413,-276 59,69 125,134 199,196 -77,20 -316,50 -612,80 z m -586,-492 c 281,-78 530,-159 633,-219 39,-3 74,-3 113,-5 15,75 44,151 89,225 10,17 19,31 29,44 -171,3 -513,-18 -864,-45 z m 2716,1019 c 214,-50 277,5 379,247 75,144 234,335 296,425 -247,28 -638,-307 -747,-491 -70,-90 36,-163 72,-181 z m 483,-776 c -10,5 -11,7 4,0 -1,0 -2,0 -4,0 41,-17 216,-99 262,-116 185,-66 284,33 454,-62 40,-25 86,-90 122,-120 32,-29 91,-25 129,-52 95,-64 271,-266 392,-288 71,-13 70,5 105,8 0,7 53,-10 39,94 -32,201 440,-3 750,71 210,51 415,122 361,257 7,-13 -62,42 -78,53 -145,105 -258,-11 -332,-21 -127,-15 -217,24 -346,8 0,-2 -156,-53 -156,-53 -98,-4 -240,47 -315,53 -144,10 -212,-40 -340,-27 -63,8 -164,90 -209,105 -42,16 -90,31 -131,44 -28,6 -99,46 -131,61 -129,63 -206,63 -366,105 l -92,24 c -199,27 -180,-109 -118,-144 z m 2794,1066 c 102,154 244,243 236,574 -10,81 16,97 84,91 61,-18 28,-399 213,-375 157,24 50,242 128,487 29,88 206,402 158,941 -4,139 -268,320 -420,214 -123,-75 -123,-167 -194,-737 -30,-335 -440,-451 -613,-605 -175,-127 -76,-191 -107,-424 -100,-338 -494,-495 -363,-720 42,-56 81,-109 206,-62 7,167 406,297 672,616 z m -62,2360 c -79,-70 -664,-688 -518,-974 160,161 608,572 767,612 45,118 39,441 -249,362 z m -702,-2 c -95,0 -698,-507 -608,-823 180,132 581,412 632,406 54,32 96,382 -24,417 z M 7258,19227 c -54,-59 -9,-174 90,-223 181,-86 255,13 295,61 176,274 404,627 573,767 -156,16 -740,-163 -958,-605 z m 10896,-6339 c -25,-133 -384,-123 -530,-300 -54,-70 -14,-109 0,-162 41,-154 370,-62 446,-200 31,-58 42,-228 22,-251 -206,-253 -641,-133 -948,-255 -149,-61 -333,-184 -488,-242 -196,-76 -346,-86 -542,-164 -45,-19 -131,-83 -178,-101 -217,-88 -390,-106 -606,-198 -26,-10 -92,-47 -121,-59 -87,-37 -113,-43 -205,-76 -336,-121 -762,-229 -1248,-198 -213,11 -458,-28 -786,66 -114,28 -272,126 -378,160 -76,22 -140,35 -208,65 -94,38 -178,93 -308,124 -371,83 -869,-8 -1246,55 -329,52 -518,258 -786,352 -83,27 -117,19 -197,48 -47,16 -159,45 -197,67 -113,58 -186,75 -312,128 -63,28 -139,87 -201,115 -91,45 -96,58 -171,113 l -61,44 c 0,0 -132,116 -149,137 -53,55 -103,131 -149,188 -137,161 -344,362 -516,487 -62,45 -107,35 -162,82 -64,50 -121,103 -183,149 -143,103 -285,170 -441,255 l -101,68 c -132,87 -126,122 -263,208 -91,62 -129,154 -212,224 -54,42 -117,175 -153,231 -171,249 -234,617 -356,926 -36,88 -332,515 -406,542 l -54,51 c -42,36 -42,46 -80,84 -88,78 -176,122 -244,217 -55,74 -87,160 -137,242 -78,128 -206,269 -270,408 -27,51 -45,103 -63,152 -8,7 -13,16 -15,16 -33,42 -90,217 -90,217 -60,139 -203,218 -392,488 -221,16 -984,-178 -1503,-423 117,129 699,520 1380,594 -45,67 -49,135 -131,157 -273,66 -746,-82 -1383,-304 37,88 598,417 1426,467 -123,144 -1260,108 -2149,-134 -35,93 1111,348 1740,340 -108,55 -391,119 -573,184 -286,-32 -686,-82 -764,-111 18,58 302,136 536,189 -225,82 -560,128 -689,155 95,25 457,-34 839,-126 333,65 845,132 1126,118 -70,36 -336,206 -544,329 -535,50 -1116,94 -1241,110 70,11 539,18 1038,5 -305,179 -629,367 -787,437 233,-58 646,-218 1069,-444 419,-16 812,-50 975,-108 -55,122 -394,707 -709,843 136,-23 573,-146 838,-809 94,40 201,64 326,71 70,105 235,377 549,392 63,181 643,1128 1459,759 -236,-128 -378,-261 -495,-638 362,-24 1322,502 1609,1638 -227,-77 -511,-208 -541,-322 -62,263 -103,602 478,1188 12,124 10,274 36,415 96,101 207,176 310,262 7,165 -16,392 417,518 147,122 619,252 689,333 140,45 349,54 502,45 0,0 205,-34 260,-113 102,-5 242,-9 869,-678 132,-157 0,-1022 32,-1232 63,-152 89,-294 173,-481 0,0 85,-185 245,-259 11,-6 21,-6 34,-10 361,-81 832,257 1055,352 81,33 124,15 190,55 31,17 76,91 109,110 80,44 156,31 245,79 129,73 392,453 622,409 71,-17 128,-180 189,-219 106,-66 256,-60 353,-134 108,-87 63,-183 80,-300 0,-5 52,-60 56,-83 53,-5 171,0 245,-24 9,-4 40,-40 53,-54 47,-48 13,-100 0,-139 -16,-44 -127,-95 -162,-133 -81,-81 -221,-199 -272,-298 -26,-49 5,-60 -29,-111 -35,-57 -131,-115 -159,-187 -105,-233 -63,-751 -109,-825 -43,-70 -96,-60 -139,-126 -89,-142 22,-602 29,-785 8,-147 -135,-56 -135,-56 -119,293 -106,423 -135,841 -5,37 -55,261 -55,300 -1,147 84,395 26,570 -19,57 -137,166 -297,163 -61,0 -365,-79 -434,-109 -13,-6 -77,-80 -81,-82 -152,-120 -184,-8 -190,52 -5,63 20,75 33,110 5,35 67,164 60,175 -2,13 -55,156 -337,-11 -212,-128 -422,-482 -433,-543 -29,-136 13,-238 39,-285 106,-96 232,37 338,94 26,14 92,60 125,66 61,11 162,-11 175,-11 412,-24 838,125 910,-151 46,-174 -124,-268 -154,-340 -39,-87 -19,-93 -41,-190 -4,-8 -32,-71 -39,-79 -42,-72 -11,-135 -53,-215 -43,-89 -165,-142 -216,-218 -70,-100 -70,-226 -165,-299 -138,-113 -693,-279 -759,-408 -105,-205 26,-581 -26,-838 -27,-151 -76,-233 -168,-326 -36,-36 -53,-91 -40,-139 24,-91 71,-66 99,-268 17,-111 -9,-236 0,-352 1,-18 54,-196 56,-217 26,-303 -14,-619 -81,-838 -32,-106 -131,-198 -163,-300 -29,-84 5,-134 -29,-218 -27,-74 -121,-126 -160,-187 -73,-108 -51,-291 -163,-354 -83,-45 -113,18 -108,0 -26,100 -21,197 27,325 21,56 121,136 138,191 21,99 -17,221 0,325 l 52,110 c 41,271 -106,633 -217,783 -77,102 -310,230 -324,380 -12,94 27,98 51,137 34,49 147,114 163,161 13,36 27,29 41,64 l 14,74 c 19,190 -228,232 -108,460 34,66 150,66 215,107 123,78 357,298 379,486 11,82 0,519 -25,571 -56,121 -361,168 -326,407 39,260 726,187 920,324 92,64 111,204 138,328 16,68 -52,90 -82,105 -72,43 -125,10 -217,30 -224,45 -581,146 -674,326 -117,207 21,492 -28,730 -50,215 -213,478 -329,652 -71,107 -163,211 -197,360 -80,319 -24,698 -47,1073 l -5,3 c 0,0 14,194 -117,336 -149,163 -664,646 -1031,646 -135,-4 -191,-48 -339,-156 -94,-8 -308,-60 -432,-189 -39,-69 -443,-479 -189,-596 239,-110 626,130 805,245 73,0 596,27 1151,-701 -27,-381 -58,-870 -100,-959 -57,-186 -373,-517 -440,-714 -42,-161 -117,-476 -69,-694 -20,-244 -174,-298 -238,-495 -18,-50 -39,-89 -50,-104 -19,-71 -32,-135 -75,-200 -97,-148 -192,-179 -279,-324 -92,-149 -76,-336 -218,-433 -79,-52 -183,-58 -270,-108 -63,-38 -144,-130 -217,-163 -85,-37 -109,-49 -196,-87 -42,-20 -119,-55 -157,-74 -37,-23 -77,-4 -108,-29 -105,-89 -29,-169 -81,-324 -5,-19 -46,-19 -56,-54 -43,-12 -118,-81 -178,-39 -81,59 -103,42 -153,166 -30,82 -85,322 -140,381 -50,58 -112,139 -188,193 -72,37 -135,33 -135,33 l -203,29 -101,156 c 0,0 -111,-15 -169,-15 -16,37 -150,140 -192,177 -172,100 -277,29 -289,-8 -8,-32 -63,-100 53,-169 398,-112 885,-643 926,-759 -51,78 -873,532 -1025,593 163,-388 1171,-955 1232,-1022 -258,38 -1116,558 -1266,787 -142,231 -310,167 -468,160 -154,-5 -141,160 -148,261 -2,99 -78,301 -14,337 106,90 383,-278 471,-80 48,220 -522,211 -517,389 -27,94 526,126 628,226 -178,131 -613,173 -743,178 -81,7 -153,4 -195,-3 -72,-12 -167,-78 -250,-214 -157,-286 109,-482 113,-556 7,-77 -30,-36 -34,-157 -5,-120 130,-140 165,-166 37,-26 -10,-60 -2,-176 71,-264 500,-567 390,-652 -99,-53 -308,177 -388,282 -296,381 -641,261 -758,266 -261,14 -215,-271 -32,-251 210,-44 194,-334 344,-305 47,212 -188,243 -78,290 150,59 165,-137 212,-220 45,-83 257,-264 233,-311 -62,-21 -217,90 -288,145 -172,-428 260,-754 283,-881 141,-224 934,-511 949,-850 l 21,-20 c 0,0 15,-9 39,31 h 2 c 5,20 9,43 15,66 2,28 -1,53 -1,53 l 3,-33 c 7,53 4,99 7,87 v 52 c 7,31 47,47 53,50 17,-3 61,-18 102,-65 6,-6 53,-51 53,-61 75,-55 89,-63 142,-139 137,-199 -126,-489 -53,-757 50,-179 216,-388 216,-388 45,-102 -26,-101 -26,-101 -104,-19 -177,93 -162,79 -134,126 -175,187 -272,355 0,0 -81,74 -105,-27 -47,-168 143,-498 202,-540 112,-77 226,-110 365,-167 70,-29 175,-142 245,-161 34,-11 71,-19 108,0 0,0 52,39 27,161 0,0 -54,147 -35,201 12,36 8,71 89,71 195,4 631,-42 759,-110 28,-11 57,-54 83,-79 40,-41 30,-101 0,-108 l -83,-27 c 64,-9 -368,-13 -298,-26 -77,13 102,-199 81,-302 -8,-47 -93,-67 -108,-105 -9,-25 -56,-60 0,-82 l 62,-27 c 21,-15 43,-41 72,-54 137,-63 382,-32 489,0 11,5 186,54 245,217 15,46 27,97 53,137 83,111 321,152 461,19 28,-26 62,-89 83,-126 138,-320 -67,-537 -328,-625 -104,-38 -275,-49 -406,-83 -92,-26 -37,-104 -11,-127 l 40,-35 c 52,-76 213,-144 272,-162 143,-55 284,-108 487,-26 31,10 110,73 133,79 154,39 212,50 355,-24 57,-29 48,-35 53,-53 51,-145 -50,-242 -47,-226 -29,-196 528,45 614,-78 82,-111 29,-324 137,-405 12,-7 76,-52 81,-53 104,-23 195,20 278,53 l 87,42 c 177,73 329,112 423,255 60,95 50,231 108,328 24,40 82,66 112,108 25,29 72,50 105,68 51,32 70,44 135,65 48,19 117,91 163,110 165,67 364,58 542,54 107,-5 170,57 270,27 52,-17 37,-109 5,-147 -64,-83 -114,-63 -221,-124 -42,-26 -94,-109 -136,-134 -124,-80 -303,-92 -379,-218 -10,-19 -23,-56 -26,-79 l -30,-58 c -149,-303 -198,-484 -53,-541 90,-34 285,-14 382,-53 21,-13 63,-74 79,-82 216,-102 620,-222 841,-108 68,31 0,203 26,270 14,30 63,80 120,96 466,126 930,105 1272,267 204,95 359,246 543,405 157,140 -30,298 133,345 -112,15 -205,27 -224,-30 -6,-15 -39,-65 -55,-80 -121,-116 -263,-294 -432,-352 -88,-32 -126,-5 -219,-29 l -108,-37 c -118,-32 -127,-21 -242,-45 -51,-10 -168,-73 -218,-79 -231,-34 -360,59 -570,0 -97,-28 -222,-182 -301,-223 -97,-55 -187,-74 -296,-110 -44,-11 -67,-11 -99,5 -60,35 -41,89 -10,134 18,23 34,64 55,77 76,55 229,55 270,136 121,236 -55,319 -81,389 -12,43 -45,76 0,134 26,30 80,68 110,80 111,47 197,29 300,82 73,39 149,171 243,192 217,46 269,-115 379,-139 157,-34 253,49 434,0 60,-16 93,-86 134,-106 105,-55 207,-62 273,-29 0,0 69,33 -29,82 -56,31 -103,31 -161,61 -40,21 -75,76 -81,85 -18,38 -31,94 -30,98 17,31 41,48 55,56 189,65 382,-58 543,-82 121,-19 456,0 553,74 0,0 90,18 32,181 -37,97 -191,168 -249,251 -34,47 -72,136 -107,182 -57,74 -67,71 -125,140 l -40,57 c -23,70 -300,304 -351,383 -31,46 -46,95 -78,145 -50,71 -87,83 -112,126 -79,114 -235,346 -364,405 -57,24 -137,-3 -218,-18 -54,-15 -113,-116 -160,-137 -190,-87 -401,-62 -568,-163 -84,-50 -160,-196 -220,-271 -40,-51 -75,-141 -134,-165 -98,-33 -334,-2 -379,82 -90,170 143,609 163,788 14,153 -57,223 0,351 26,66 128,82 161,135 147,232 19,559 55,867 13,97 70,216 52,354 -22,217 -301,403 -188,731 5,15 57,52 61,57 43,21 111,12 156,-2 91,-31 179,-212 273,-270 9,-11 40,-27 57,-27 10,-18 36,-20 51,-27 40,-30 55,-31 79,-81 39,-88 26,-175 55,-300 28,-104 124,-288 136,-407 33,-331 -207,-981 -35,-1087 66,-42 132,-120 246,-137 50,-12 213,38 284,36 -1,2 -2,2 -2,3 -88,208 238,749 212,1049 -63,728 -539,1131 -951,1520 -47,46 -6,99 29,135 81,78 279,44 381,27 149,-30 215,-98 325,-135 40,-16 90,10 134,0 112,-31 208,-182 271,-274 0,0 133,-143 161,46 l 3,10 c 0,176 -31,370 0,541 32,204 403,815 596,842 451,67 -11,-502 -29,-542 -73,-173 -145,-478 -135,-704 3,-83 71,-251 81,-328 5,-39 -15,-129 0,-160 35,-72 275,-96 326,-191 13,-28 -6,-76 0,-107 11,-65 58,-186 110,-243 32,-40 78,-64 135,0 46,52 58,174 136,261 l 66,73 c 81,51 210,-17 176,-9 84,-24 74,-108 110,-138 5,-5 53,-25 53,-25 195,-202 -240,-384 -244,-571 -5,-208 46,-448 -27,-677 -17,-58 -123,-139 -136,-189 -29,-132 39,-270 55,-352 30,-174 -29,-440 28,-517 32,-42 84,-72 188,-54 70,12 115,124 163,163 177,143 383,222 679,188 36,-1 66,-56 73,-72 19,-53 14,-123 -19,-171 -107,-143 -520,-252 -542,-323 -16,-53 -82,-124 -10,-160 -39,23 254,-8 361,-31 138,-30 148,-167 244,-216 134,-71 332,-8 408,-134 45,-82 10,-199 53,-273 54,-96 215,-116 297,-192 26,-21 14,-105 8,-132 z"
   id="path151"
   style="fill:#ffffff" />
       </g>
      </g>
      <g
   class="com.sun.star.drawing.ClosedBezierShape"
   id="g161">
       <g
   id="id18">
        <rect
   class="BoundingBox"
   stroke="none"
   fill="none"
   x="6713"
   y="18545"
   width="14"
   height="8"
   id="rect156" />
        <path
   fill="#231f20"
   stroke="none"
   d="m 6721,18545 c 2,0 3,0 4,0 -16,9 -15,7 -4,0 z"
   id="path158" />
       </g>
      </g>
     </g>
    </g>
   </g>
  </g>
 </g>
</svg>
