<?xml version="1.0" encoding="UTF-8" standalone="no"?>
<!-- Created with Inkscape (http://www.inkscape.org/) -->

<svg
   width="256"
   height="256"
   viewBox="0 0 67.733332 67.733333"
   version="1.1"
   id="svg1"
   inkscape:version="1.3.2 (091e20e, 2023-11-25, custom)"
   sodipodi:docname="sprite_hyper.svg"
   xmlns:inkscape="http://www.inkscape.org/namespaces/inkscape"
   xmlns:sodipodi="http://sodipodi.sourceforge.net/DTD/sodipodi-0.dtd"
   xmlns="http://www.w3.org/2000/svg"
   xmlns:svg="http://www.w3.org/2000/svg">
  <sodipodi:namedview
     id="namedview1"
     pagecolor="#ffffff"
     bordercolor="#000000"
     borderopacity="0.25"
     inkscape:showpageshadow="2"
     inkscape:pageopacity="0.0"
     inkscape:pagecheckerboard="true"
     inkscape:deskcolor="#d1d1d1"
     inkscape:document-units="mm"
     inkscape:zoom="2.8970539"
     inkscape:cx="127.37078"
     inkscape:cy="117.87837"
     inkscape:window-width="1920"
     inkscape:window-height="1009"
     inkscape:window-x="-8"
     inkscape:window-y="-8"
     inkscape:window-maximized="1"
     inkscape:current-layer="layer1" />
  <defs
     id="defs1" />
  <g
     inkscape:label="Layer 1"
     inkscape:groupmode="layer"
     id="layer1">
    <path
       id="path1"
       style="fill:#ffffff;stroke-width:0.327046"
       d="M 33.866667 0 A 33.866665 33.866665 0 0 0 0 33.866667 A 33.866665 33.866665 0 0 0 33.866667 67.733333 A 33.866665 33.866665 0 0 0 67.733333 33.866667 A 33.866665 33.866665 0 0 0 33.866667 0 z M 11.310937 24.479126 L 13.397115 24.479126 L 13.397115 27.608651 L 17.56947 27.608651 L 17.56947 24.479126 L 19.655131 24.479126 L 19.655131 32.823836 L 17.56947 32.823836 L 17.56947 29.694312 L 13.397115 29.694312 L 13.397115 32.823836 L 11.310937 32.823836 L 11.310937 24.479126 z M 20.502625 24.479126 L 22.588802 24.479126 L 22.588802 28.651481 L 26.761157 28.651481 L 26.761157 24.479126 L 28.846818 24.479126 L 28.846818 29.694312 C 28.846818 29.987665 28.74371 30.234867 28.537276 30.435868 C 28.330842 30.63687 28.086476 30.737659 27.803988 30.737659 L 25.71781 30.737659 L 25.71781 32.823836 L 23.631632 32.823836 L 23.631632 30.737659 L 21.545972 30.737659 C 21.252618 30.737659 21.005416 30.63687 20.804415 30.435868 C 20.603413 30.229434 20.502625 29.982233 20.502625 29.694312 L 20.502625 24.479126 z M 29.694312 24.479126 L 38.039022 24.479126 L 38.039022 29.694312 C 38.039022 29.987665 37.935397 30.234867 37.728963 30.435868 C 37.522529 30.63687 37.278163 30.737659 36.995675 30.737659 L 31.780489 30.737659 L 31.780489 32.823836 L 29.694312 32.823836 L 29.694312 24.479126 z M 38.886515 24.479126 L 47.230709 24.479126 L 47.230709 26.565304 L 40.972176 26.565304 L 40.972176 27.608651 L 47.230709 27.608651 L 47.230709 29.694312 L 40.972176 29.694312 L 40.972176 30.737659 L 47.230709 30.737659 L 47.230709 32.823836 L 39.929346 32.823836 C 39.635992 32.823836 39.38879 32.723047 39.187789 32.522046 C 38.986787 32.315612 38.886515 32.06841 38.886515 31.780489 L 38.886515 24.479126 z M 48.078202 24.479126 L 55.379049 24.479126 C 55.66697 24.479126 55.911852 24.582751 56.112854 24.789185 C 56.319288 24.995619 56.422396 25.239984 56.422396 25.522473 L 56.422396 28.651481 C 56.422396 28.944835 56.319288 29.192036 56.112854 29.393038 C 55.90642 29.594039 55.661537 29.694312 55.379049 29.694312 C 55.66697 29.694312 55.911852 29.797936 56.112854 30.00437 C 56.319288 30.210804 56.422396 30.45517 56.422396 30.737659 L 56.422396 32.823836 L 54.336218 32.823836 L 54.336218 30.737659 L 50.163863 30.737659 L 50.163863 32.823836 L 48.078202 32.823836 L 48.078202 24.479126 z M 31.780489 26.565304 L 31.780489 28.651481 L 35.952844 28.651481 L 35.952844 26.565304 L 31.780489 26.565304 z M 50.163863 26.565304 L 50.163863 28.651481 L 54.336218 28.651481 L 54.336218 26.565304 L 50.163863 26.565304 z M 15.907039 34.909497 L 19.036047 34.909497 C 19.323969 34.909497 19.568334 35.013122 19.769336 35.219556 C 19.97577 35.42599 20.078878 35.670356 20.078878 35.952844 C 20.078878 35.664923 20.179667 35.420557 20.380668 35.219556 C 20.587102 35.013122 20.834304 34.909497 21.122225 34.909497 L 24.251233 34.909497 L 24.251233 43.254207 L 22.165055 43.254207 L 22.165055 36.995675 L 21.122225 36.995675 L 21.122225 43.254207 L 19.036047 43.254207 L 19.036047 36.995675 L 17.993217 36.995675 L 17.993217 43.254207 L 15.907039 43.254207 L 15.907039 34.909497 z M 26.141557 34.909497 L 33.44292 34.909497 L 33.44292 42.21086 C 33.44292 42.504214 33.339812 42.751415 33.133378 42.952417 C 32.926944 43.153419 32.682578 43.254207 32.40009 43.254207 L 25.098726 43.254207 L 25.098726 35.952844 C 25.098726 35.664923 25.198998 35.420557 25.4 35.219556 C 25.606434 35.013122 25.853636 34.909497 26.141557 34.909497 z M 34.290413 34.909497 L 41.591777 34.909497 C 41.879698 34.909497 42.124064 35.013122 42.325065 35.219556 C 42.531499 35.42599 42.634607 35.670356 42.634607 35.952844 L 42.634607 43.254207 L 34.290413 43.254207 L 34.290413 34.909497 z M 43.4821 34.909497 L 51.826294 34.909497 L 51.826294 36.995675 L 45.568278 36.995675 L 45.568278 38.039022 L 51.826294 38.039022 L 51.826294 40.124683 L 45.568278 40.124683 L 45.568278 41.16803 L 51.826294 41.16803 L 51.826294 43.254207 L 44.525448 43.254207 C 44.232094 43.254207 43.984892 43.153419 43.783891 42.952417 C 43.582889 42.745983 43.4821 42.498781 43.4821 42.21086 L 43.4821 34.909497 z M 27.184904 36.995675 L 27.184904 41.16803 L 31.356742 41.16803 L 31.356742 36.995675 L 27.184904 36.995675 z M 36.376591 36.995675 L 36.376591 41.16803 L 40.548429 41.16803 L 40.548429 36.995675 L 36.376591 36.995675 z " />
  </g>
</svg>
