<?xml version="1.0" encoding="UTF-8" standalone="no"?>
<!-- Created with Inkscape (http://www.inkscape.org/) -->

<svg
   width="96"
   height="96"
   viewBox="0 0 25.399999 25.399999"
   version="1.1"
   id="svg1"
   sodipodi:docname="sprite_restart.svg"
   inkscape:version="1.3.2 (091e20e, 2023-11-25, custom)"
   xmlns:inkscape="http://www.inkscape.org/namespaces/inkscape"
   xmlns:sodipodi="http://sodipodi.sourceforge.net/DTD/sodipodi-0.dtd"
   xmlns="http://www.w3.org/2000/svg"
   xmlns:svg="http://www.w3.org/2000/svg">
  <sodipodi:namedview
     id="namedview1"
     pagecolor="#ffffff"
     bordercolor="#000000"
     borderopacity="0.25"
     inkscape:showpageshadow="2"
     inkscape:pageopacity="0.0"
     inkscape:pagecheckerboard="true"
     inkscape:deskcolor="#d1d1d1"
     inkscape:document-units="px"
     inkscape:zoom="4.2190797"
     inkscape:cx="14.695148"
     inkscape:cy="19.1985"
     inkscape:window-width="1440"
     inkscape:window-height="830"
     inkscape:window-x="-6"
     inkscape:window-y="-6"
     inkscape:window-maximized="1"
     inkscape:current-layer="layer1" />
  <defs
     id="defs1" />
  <g
     inkscape:label="Layer 1"
     inkscape:groupmode="layer"
     id="layer1">
    <path
       id="path1"
       style="fill:#ffffff;stroke-width:0.286925"
       d="M 12.7,4.2333332 A 8.4666662,8.4666662 0 0 0 4.2333332,12.7 8.4666662,8.4666662 0 0 0 12.7,21.166666 8.4666662,8.4666662 0 0 0 16.932299,20.030301 L 15.866214,18.184419 A 6.3499999,6.3499999 0 0 1 12.7,19.049999 6.3499999,6.3499999 0 0 1 6.3499998,12.7 6.3499999,6.3499999 0 0 1 12.7,6.3499998 6.3499999,6.3499999 0 0 1 19.049999,12.7 h 2.116667 A 8.4666662,8.4666662 0 0 0 12.7,4.2333332 Z" />
    <path
       sodipodi:type="star"
       style="fill:#ffffff;stroke-width:0.264583"
       id="path4"
       inkscape:flatsided="true"
       sodipodi:sides="3"
       sodipodi:cx="11.162584"
       sodipodi:cy="11.789696"
       sodipodi:r1="4.0213442"
       sodipodi:r2="2.0106723"
       sodipodi:arg1="1.5707963"
       sodipodi:arg2="2.6179939"
       inkscape:rounded="2.4286129e-17"
       inkscape:randomized="0"
       d="m 11.162584,15.81104 -3.482586,-6.0320163 6.965172,-10e-8 z"
       inkscape:transform-center-y="1.005336"
       transform="translate(6.4537785,6.1790815)" />
  </g>
</svg>
