<?xml version="1.0" encoding="UTF-8" standalone="no"?>
<!-- Created with Inkscape (http://www.inkscape.org/) -->

<svg
   width="64"
   height="64"
   viewBox="0 0 16.933333 16.933333"
   version="1.1"
   id="svg1"
   sodipodi:docname="sprite_rotation_speed_up.svg"
   inkscape:version="1.3.2 (091e20e, 2023-11-25, custom)"
   xmlns:inkscape="http://www.inkscape.org/namespaces/inkscape"
   xmlns:sodipodi="http://sodipodi.sourceforge.net/DTD/sodipodi-0.dtd"
   xmlns="http://www.w3.org/2000/svg"
   xmlns:svg="http://www.w3.org/2000/svg">
  <sodipodi:namedview
     id="namedview1"
     pagecolor="#ffffff"
     bordercolor="#000000"
     borderopacity="0.25"
     inkscape:showpageshadow="2"
     inkscape:pageopacity="0.0"
     inkscape:pagecheckerboard="true"
     inkscape:deskcolor="#d1d1d1"
     inkscape:document-units="px"
     inkscape:zoom="4.2190797"
     inkscape:cx="38.159981"
     inkscape:cy="70.631517"
     inkscape:window-width="1440"
     inkscape:window-height="830"
     inkscape:window-x="-6"
     inkscape:window-y="-6"
     inkscape:window-maximized="1"
     inkscape:current-layer="layer1" />
  <defs
     id="defs1" />
  <g
     inkscape:label="Layer 1"
     inkscape:groupmode="layer"
     id="layer1">
    <path
       id="path1"
       style="fill:#ffffff;stroke-width:0.286925"
       d="M 8.466667,4.2333333 A 4.2333331,4.2333331 0 0 0 4.2333333,8.466667 4.2333331,4.2333331 0 0 0 8.466667,12.7 4.2333331,4.2333331 0 0 0 10.582816,12.131817 L 10.049774,11.208876 A 3.175,3.175 0 0 1 8.466667,11.641666 3.175,3.175 0 0 1 5.2916666,8.466667 3.175,3.175 0 0 1 8.466667,5.2916666 3.175,3.175 0 0 1 11.641666,8.466667 H 12.7 A 4.2333331,4.2333331 0 0 0 8.466667,4.2333333 Z" />
    <path
       sodipodi:type="star"
       style="fill:#ffffff;stroke-width:0.529166"
       id="path4"
       inkscape:flatsided="true"
       sodipodi:sides="3"
       sodipodi:cx="11.162584"
       sodipodi:cy="11.789696"
       sodipodi:r1="4.0213442"
       sodipodi:r2="2.0106723"
       sodipodi:arg1="1.5707963"
       sodipodi:arg2="2.6179939"
       inkscape:rounded="2.4286129e-17"
       inkscape:randomized="0"
       d="m 11.162584,15.81104 -3.482586,-6.0320163 6.965172,-10e-8 z"
       inkscape:transform-center-y="0.502668"
       transform="matrix(0.5,0,0,0.5,5.3435559,5.2062074)" />
    <path
       sodipodi:type="star"
       style="fill:#ffffff;stroke-width:0.612236"
       id="path1-7"
       inkscape:flatsided="true"
       sodipodi:sides="3"
       sodipodi:cx="3.54318"
       sodipodi:cy="6.9609375"
       sodipodi:r1="4.8978972"
       sodipodi:r2="2.4489486"
       sodipodi:arg1="0"
       sodipodi:arg2="1.0471976"
       inkscape:rounded="2.4286129e-17"
       inkscape:randomized="0"
       d="m 8.4410772,6.9609375 -7.3468458,4.2417035 0,-8.4834069 z"
       inkscape:transform-center-x="-0.52916666"
       transform="matrix(0.43215822,0,0,0.43215822,5.877119,5.4583678)" />
    <path
       id="path1-8"
       style="fill:#ffffff;stroke-width:0.264583"
       inkscape:transform-center-x="-0.52916687"
       d="m 8.202084,6.633369 v 0.916499 l 1.5875,0.9165 -1.5875,0.9165 v 0.917 l 3.175,-1.8335 z" />
  </g>
</svg>
